IKResults
version=1
nRows=58
nColumns=8
inDegrees=yes

Units are S.I. units (second, meters, Newtons, ...)
If the header above contains a line with 'inDegrees', this indicates whether rotational values are in degrees (yes) or radians (no).

endheader
time	Shank_rx	Shank_ry	Shank_rz	Shank_tx	Shank_ty	Shank_tz	Rfoot_rz
      3.25000000	     -3.40355919	      3.44888318	      1.76414236	     -0.27725876	      0.28561482	     -0.62535262	     -3.28383061
      3.26000000	     -3.40517937	      3.46162491	      1.76193483	     -0.27725734	      0.28558510	     -0.62534019	     -3.27555991
      3.27000000	     -3.41308497	      3.45580397	      1.67798940	     -0.27700320	      0.28553625	     -0.62538478	     -3.18241446
      3.28000000	     -3.40319087	      3.45635822	      1.66917807	     -0.27697748	      0.28559118	     -0.62533448	     -3.18779855
      3.29000000	     -3.39694320	      3.46064591	      1.66183235	     -0.27693630	      0.28560842	     -0.62527796	     -3.19072257
      3.30000000	     -3.36827847	      3.45141992	      1.58809279	     -0.27670094	      0.28558032	     -0.62519053	     -3.09965269
      3.31000000	     -3.37051246	      3.45934895	      1.52469738	     -0.27651852	      0.28559666	     -0.62518742	     -3.04180618
      3.32000000	     -3.36874838	      3.45143792	      1.51459597	     -0.27646910	      0.28562419	     -0.62517931	     -3.04729198
      3.33000000	     -3.34200132	      3.44246317	      1.42414048	     -0.27616569	      0.28561158	     -0.62511432	     -2.95190249
      3.34000000	     -3.34221249	      3.45108758	      1.41584378	     -0.27613395	      0.28563181	     -0.62509138	     -2.95230951
      3.35000000	     -3.36802157	      3.44952988	      1.29826121	     -0.27578247	      0.28562883	     -0.62521992	     -2.83640414
      3.36000000	     -3.36274860	      3.45405292	      1.28702691	     -0.27571404	      0.28561701	     -0.62520398	     -2.84148047
      3.37000000	     -3.33967180	      3.44571198	      1.20640414	     -0.27546395	      0.28566146	     -0.62514565	     -2.75473312
      3.38000000	     -3.36949036	      3.44203856	      1.17557091	     -0.27535372	      0.28570555	     -0.62525302	     -2.74150780
      3.39000000	     -3.35375249	      3.43255055	      1.09939228	     -0.27509739	      0.28566925	     -0.62525513	     -2.66593580
      3.40000000	     -3.35098778	      3.44197043	      1.08953305	     -0.27504211	      0.28569595	     -0.62522567	     -2.67053385
      3.41000000	     -3.36291673	      3.45017833	      0.99042000	     -0.27475055	      0.28571586	     -0.62526513	     -2.57082675
      3.42000000	     -3.34253523	      3.44071408	      0.92357227	     -0.27452884	      0.28572601	     -0.62521583	     -2.50530081
      3.43000000	     -3.34408787	      3.44232138	      0.91303419	     -0.27444494	      0.28569344	     -0.62524575	     -2.50829033
      3.44000000	     -3.36505898	      3.45402879	      0.84498081	     -0.27424737	      0.28572620	     -0.62530463	     -2.44149038
      3.45000000	     -3.36271163	      3.45223230	      0.83220538	     -0.27417339	      0.28581601	     -0.62529854	     -2.45164167
      3.46000000	     -3.32600100	      3.44054484	      0.75020900	     -0.27389357	      0.28576640	     -0.62519901	     -2.37250871
      3.47000000	     -3.36512108	      3.44835011	      0.72996489	     -0.27382360	      0.28573748	     -0.62535814	     -2.35586155
      3.48000000	     -3.21955743	      3.47297632	      0.70016981	     -0.27370014	      0.28582870	     -0.62473167	     -2.34007238
      3.49000000	     -3.18314928	      3.46509605	      0.63515086	     -0.27348718	      0.28584632	     -0.62461737	     -2.27281233
      3.50000000	     -3.30544247	      3.44207639	      0.58871086	     -0.27332855	      0.28576693	     -0.62515547	     -2.23362906
      3.51000000	     -3.21323526	      3.46708626	      0.43256215	     -0.27281263	      0.28580010	     -0.62476345	     -2.08248288
      3.52000000	     -3.21000619	      3.47713424	      0.41766542	     -0.27272429	      0.28590816	     -0.62472507	     -2.09588731
      3.53000000	     -3.20890425	      3.46624209	      0.40116951	     -0.27261344	      0.28592272	     -0.62477501	     -2.11032452
      3.54000000	     -3.21565249	      3.45540837	      0.39098141	     -0.27255402	      0.28593226	     -0.62482386	     -2.11574245
      3.55000000	     -3.21364588	      3.45187186	      0.36722892	     -0.27245283	      0.28604192	     -0.62482485	     -2.12987965
      3.56000000	     -3.29525670	      3.42366308	      0.25980376	     -0.27213257	      0.28600437	     -0.62518725	     -2.01245282
      3.57000000	     -3.29501117	      3.42363687	      0.26008923	     -0.27210605	      0.28598510	     -0.62521128	     -2.01242502
      3.58000000	     -3.18798704	      3.44807195	      0.21607426	     -0.27193845	      0.28602332	     -0.62475294	     -1.99263280
      3.59000000	     -3.28997135	      3.42873152	      0.17071539	     -0.27179497	      0.28605407	     -0.62516983	     -1.95606522
      3.60000000	     -3.25102221	      3.41844521	      0.09254819	     -0.27155249	      0.28602217	     -0.62505787	     -1.86307229
      3.61000000	     -3.24885701	      3.42450465	      0.08371133	     -0.27153979	      0.28600442	     -0.62502810	     -1.86796203
      3.62000000	     -3.22778674	      3.39570360	      0.06354789	     -0.27143593	      0.28608305	     -0.62493056	     -1.86416319
      3.63000000	     -3.11878693	      3.35864186	     -0.03263289	     -0.27112753	      0.28605665	     -0.62459997	     -1.73841613
      3.64000000	     -3.16963939	      3.40361730	     -0.04604453	     -0.27107086	      0.28607612	     -0.62473336	     -1.75371248
      3.65000000	     -3.16771870	      3.40314181	     -0.06335801	     -0.27096422	      0.28613173	     -0.62470252	     -1.76887829
      3.66000000	     -3.09036394	      3.35504960	     -0.09076338	     -0.27081319	      0.28618284	     -0.62447352	     -1.74827459
      3.67000000	     -3.13997937	      3.39745863	     -0.14580928	     -0.27059433	      0.28623637	     -0.62457774	     -1.74029510
      3.68000000	     -3.09533602	      3.39623524	     -0.24443656	     -0.27023747	      0.28626014	     -0.62442091	     -1.66824943
      3.69000000	     -3.09722626	      3.39299879	     -0.26144708	     -0.27011569	      0.28634483	     -0.62441388	     -1.68094654
      3.70000000	     -3.09953451	      3.39459785	     -0.27779908	     -0.27000859	      0.28638223	     -0.62439939	     -1.69155018
      3.71000000	     -3.09643211	      3.39613902	     -0.29687460	     -0.26991365	      0.28643144	     -0.62440146	     -1.70329333
      3.72000000	     -3.09859973	      3.38911631	     -0.31949851	     -0.26977025	      0.28650653	     -0.62441840	     -1.71585072
      3.73000000	     -3.09220043	      3.39745337	     -0.42350521	     -0.26944897	      0.28645334	     -0.62439634	     -1.59958988
      3.74000000	     -3.08855772	      3.39838768	     -0.43262942	     -0.26939862	      0.28646283	     -0.62436614	     -1.60143555
      3.75000000	     -3.05821750	      3.38002712	     -0.45889140	     -0.26933618	      0.28651658	     -0.62426442	     -1.57418787
      3.76000000	     -3.05905817	      3.38761411	     -0.46963137	     -0.26927701	      0.28649584	     -0.62425562	     -1.57906965
      3.77000000	     -3.07156224	      3.38598328	     -0.53786601	     -0.26909463	      0.28645477	     -0.62430362	     -1.49264017
      3.78000000	     -3.06565611	      3.39139376	     -0.54793219	     -0.26905784	      0.28648553	     -0.62428351	     -1.49810246
      3.79000000	     -3.06581300	      3.39141658	     -0.54786037	     -0.26904965	      0.28651701	     -0.62427014	     -1.49805016
      3.80000000	     -3.06580947	      3.39146622	     -0.54756512	     -0.26902076	      0.28648969	     -0.62426556	     -1.49801589
      3.81000000	     -3.06565795	      3.39146266	     -0.54767896	     -0.26902770	      0.28650036	     -0.62428131	     -1.49800596
      3.82000000	     -3.07152432	      3.38810927	     -0.55615064	     -0.26900744	      0.28653186	     -0.62430839	     -1.50092306
